<svg xmlns="http://www.w3.org/2000/svg" viewBox="0 0 472.93 294.28"><defs><style>.cls-1{fill:#83b2a9;}.cls-2{fill:#6b918a;}.cls-3{fill:none;stroke:#001928;stroke-miterlimit:10;}.cls-4{fill:#001928;}</style></defs><g id="Layer_2" data-name="Layer 2"><g id="Layer_4" data-name="Layer 4"><polygon class="cls-1" points="118.28 273.44 0.09 294.28 0.09 20.84 118.28 0 118.28 273.44"/><polygon class="cls-2" points="118.28 273.44 236.46 294.28 236.46 20.84 118.28 0 118.28 273.44"/><polygon class="cls-2" points="354.65 273.44 472.84 294.28 472.84 20.84 354.65 0 354.65 273.44"/><polygon class="cls-1" points="354.65 273.44 236.46 294.28 236.46 20.84 354.65 0 354.65 273.44"/><polyline class="cls-3" points="0.09 157.84 118.28 137 236.46 157.84 354.65 137 472.84 157.84"/><path class="cls-4" d="M192.16,121.07l-29.58-5.22a12.44,12.44,0,0,1-10-11.76V55.49c0-5.53,4.47-9.21,10-8.24l29.58,5.22a12.44,12.44,0,0,1,10,11.76v48.6C202.16,118.36,197.69,122,192.16,121.07Z"/><path class="cls-4" d="M192.16,247.59l-29.58-5.22a12.44,12.44,0,0,1-10-11.76V182c0-5.53,4.47-9.21,10-8.24L192.16,179a12.44,12.44,0,0,1,10,11.76v48.6C202.16,244.88,197.69,248.56,192.16,247.59Z"/><path class="cls-4" d="M424.92,121.07l-29.59-5.22a12.45,12.45,0,0,1-10-11.76V55.49c0-5.53,4.48-9.21,10-8.24l29.59,5.22a12.45,12.45,0,0,1,10,11.76v48.6C434.92,118.36,430.44,122,424.92,121.07Z"/><path class="cls-4" d="M424.92,247.59l-29.59-5.22a12.45,12.45,0,0,1-10-11.76V182c0-5.53,4.48-9.21,10-8.24L424.92,179a12.45,12.45,0,0,1,10,11.76v48.6C434.92,244.88,430.44,248.56,424.92,247.59Z"/><path class="cls-4" d="M70.35,113.48l-29.58,5.21c-5.53,1-10-2.71-10-8.23V61.85a12.44,12.44,0,0,1,10-11.76l29.58-5.22c5.52-1,10,2.72,10,8.24v48.6A12.46,12.46,0,0,1,70.35,113.48Z"/><path class="cls-4" d="M70.35,249.33l-29.58,5.21c-5.53,1-10-2.71-10-8.23V197.7a12.44,12.44,0,0,1,10-11.76l29.58-5.22c5.52-1,10,2.72,10,8.24v48.6A12.47,12.47,0,0,1,70.35,249.33Z"/><path class="cls-4" d="M310.35,113.48l-29.58,5.21c-5.53,1-10-2.71-10-8.23V61.85a12.44,12.44,0,0,1,10-11.76l29.58-5.22c5.52-1,10,2.72,10,8.24v48.6A12.46,12.46,0,0,1,310.35,113.48Z"/><path class="cls-4" d="M310.35,249.33l-29.58,5.21c-5.53,1-10-2.71-10-8.23V197.7a12.44,12.44,0,0,1,10-11.76l29.58-5.22c5.52-1,10,2.72,10,8.24v48.6A12.47,12.47,0,0,1,310.35,249.33Z"/></g></g></svg>