<svg xmlns="http://www.w3.org/2000/svg" viewBox="0 0 598.76 560.17"><defs><style>.cls-1,.cls-2{fill:none;stroke-miterlimit:10;stroke-width:12px;}.cls-1{stroke:#83b2a9;}.cls-2{stroke:#001928;}.cls-3{fill:#83b2a9;}.cls-4{fill:#001928;}</style></defs><g id="Layer_2" data-name="Layer 2"><g id="Layer_2-2" data-name="Layer 2"><line class="cls-1" x1="277.59" y1="5" x2="277.59" y2="560.17"/><line class="cls-1" y1="282.59" x2="555.17" y2="282.59"/><line class="cls-2" x1="283.59" x2="283.59" y2="555.17"/><line class="cls-2" x1="6" y1="277.59" x2="561.17" y2="277.59"/><rect class="cls-3" x="1" y="74.41" width="82.17" height="82.17"/><rect class="cls-4" x="6" y="69.41" width="82.17" height="82.17"/><rect class="cls-3" x="133.45" y="145.73" width="82.17" height="82.17"/><rect class="cls-4" x="138.45" y="140.73" width="82.17" height="82.17"/><rect class="cls-3" x="88.17" y="352.91" width="82.17" height="82.17"/><rect class="cls-4" x="93.17" y="347.91" width="82.17" height="82.17"/><rect class="cls-3" x="362.42" y="418.59" width="82.17" height="82.17"/><rect class="cls-4" x="367.42" y="413.59" width="82.17" height="82.17"/><rect class="cls-3" x="511.59" y="319.45" width="82.17" height="82.17"/><rect class="cls-4" x="516.59" y="314.45" width="82.17" height="82.17"/><rect class="cls-3" x="379.4" y="135.09" width="82.17" height="82.17"/><rect class="cls-4" x="384.4" y="130.09" width="82.17" height="82.17"/></g></g></svg>