<svg xmlns="http://www.w3.org/2000/svg" viewBox="0 0 117.82 210.47"><defs><style>.cls-1{fill:#131313;}</style></defs><g id="Layer_2" data-name="Layer 2"><g id="Interview"><path class="cls-1" d="M19.16,73.25V63.56H57.79V56.82H19.21V47.55H57.72c.14-2.44.24-4.34.39-6.88H19.44C17.54,25,29.12,8.22,45.36,2.4c25.87-9.29,53.25,9.56,53.49,37,.17,20.42.3,40.84-.08,61.24-.39,21.33-19.12,38.69-40.54,38.21-21.7-.48-39.3-18.17-39.32-39.53,0-.81.1-1.62.2-3.09H57.78l.32-6.7H19.15V80.05h38.5v-6.8Z"/><path class="cls-1" d="M11.93,210.47V191.88h36.3c0-11.18.1-21.77-.16-32.34,0-1.11-2-2.75-3.41-3.15C13.92,147.45-3.22,121.31.5,88.44H10c0,3.53,0,7.1,0,10.66.12,27.43,21.73,49.13,48.9,49.13s48.74-21.68,48.91-49.15c0-3.45,0-6.9,0-10.66H117c4.89,31.35-13.57,59.43-42.53,67.48-4,1.11-5.19,2.63-5.06,6.66.32,9.57.1,19.16.1,29.19h36.17v18.73Z"/></g></g></svg>